# xmcd
#
# Track frame offsets:
#	150
#	42935
#	66465
#	99706
#
# Disc length: 1912 seconds
#
# Revision: 1
# Processed by: cddbd v1.5.2PL0 Copyright (c) Steve Scherf et al.
# Submitted via: audiograbber 1.83.01
#
DISCID=35077604
DTITLE=Black Tremor  - Impending
DYEAR=2015
DGENRE=Stoner/Doom Metal
TTITLE0=The Church
TTITLE1=Rise
TTITLE2=Markhor
TTITLE3=Impending
EXTD=
EXTT0=
EXTT1=
EXTT2=
EXTT3=
PLAYORDER=
